<?xml version="1.0" encoding="UTF-8"?>
<svg width="28px" height="28px" viewBox="0 0 28 28" version="1.1" xmlns="http://www.w3.org/2000/svg" xmlns:xlink="http://www.w3.org/1999/xlink">
    <title>案件子系统_icon</title>
    <g id="页面-1" stroke="none" stroke-width="1" fill="none" fill-rule="evenodd">
        <g id="1-0、接入点列表" transform="translate(-24.000000, -18.000000)" fill="#3152EF">
            <g id="标题" transform="translate(24.000000, 18.000000)">
                <g id="案件子系统_icon" transform="translate(1.000000, 1.000000)">
                    <path d="M6,0 C9.3137085,-6.08718376e-16 12,2.6862915 12,6 L12,12 L12,12 L6,12 C2.6862915,12 4.05812251e-16,9.3137085 0,6 C-4.05812251e-16,2.6862915 2.6862915,6.08718376e-16 6,0 Z" id="矩形"></path>
                    <path d="M6,14 L12,14 L12,14 L12,20 C12,23.3137085 9.3137085,26 6,26 C2.6862915,26 4.05812251e-16,23.3137085 0,20 C-4.05812251e-16,16.6862915 2.6862915,14 6,14 Z" id="矩形备份-5"></path>
                    <path d="M20,0 C23.3137085,-6.08718376e-16 26,2.6862915 26,6 C26,9.3137085 23.3137085,12 20,12 L14,12 L14,12 L14,6 C14,2.6862915 16.6862915,6.08718376e-16 20,0 Z" id="矩形备份-2"></path>
                    <path d="M14,14 L20,14 C23.3137085,14 26,16.6862915 26,20 C26,23.3137085 23.3137085,26 20,26 C16.6862915,26 14,23.3137085 14,20 L14,14 L14,14 Z" id="矩形备份-4"></path>
                </g>
            </g>
        </g>
    </g>
</svg>