<svg width="18" height="18" viewBox="0 0 18 18" xmlns="http://www.w3.org/2000/svg"><g fill-rule="nonzero"><path d="M4.277 0C3.013 0 .41 2.096.074 3.43c-.12.424-.093.926.051 1.504.14.526.319 1.026.54 1.509.233.523.497 1.041.787 1.545.277.488.573.972.886 1.445a32.766 32.766 0 0 0 3.685 4.117c1.388 1.32 2.859 2.421 4.4 3.297.561.32 1.148.598 1.752.83a4.483 4.483 0 0 0 2.208.29 1 1 0 0 0 .317-.096c1.301-.64 3.3-2.407 3.3-3.855 0-1.337-1.37-2.489-4.07-3.85-.687-.343-1.391-.385-2.039-.088-.195.09-.385.182-.57.277l-.522.278.438.43a37.056 37.056 0 0 0-2.302-2.126l-.3-.265c-.395-.361-.764-.75-1.104-1.163l-.234-.294.069-.129.22-.39.1-.19c.057-.115.11-.21.17-.303l.058-.107a2.16 2.16 0 0 0-.126-2.132l-.083-.118-.169-.256-.342-.56-.385-.64-.234-.378-.213-.331-.272-.4C5.476.417 4.99 0 4.277 0zm-.224 2.082l.08-.04.008.009c.123.129.273.321.446.574l.2.302.313.502.632 1.048.176.279.153.229.072.1.007.018a.107.107 0 0 1-.002.051l-.019.055-.092.156-.205.386-.193.343c-.129.23-.234.457-.32.691l-.044.129c-.132.42-.135.781.156 1.136l.026.029-.034-.046a13.45 13.45 0 0 0 2.227 2.428 35.077 35.077 0 0 1 2.18 2.014 1 1 0 0 0 .333.22c.35.143.725.158 1.072-.011l.774-.425c.234-.128.474-.247.726-.363.067-.03.142-.026.31.057 1.105.558 1.923 1.063 2.441 1.498.115.097.208.183.282.258l.123.134c.017.02.032.037.044.054l.057.08c.012.02.017.033.017.04l-.012.067c-.131.403-1.267 1.43-1.942 1.861l-.084.051.173-.014c-.403.05-.81-.004-1.237-.17a10.84 10.84 0 0 1-1.484-.703c-1.4-.795-2.74-1.8-4.015-3.011a30.798 30.798 0 0 1-3.429-3.82 24.16 24.16 0 0 1-.78-1.282c-.26-.45-.493-.908-.702-1.376a7.423 7.423 0 0 1-.425-1.186c-.064-.254-.073-.428-.056-.487.062-.245.554-.738 1.07-1.167l.308-.247c.254-.195.494-.358.669-.45z"/><path d="M10 3a5 5 0 0 1 5 5 1 1 0 0 1-1.993.117L13 8a3 3 0 0 0-3-3 1 1 0 1 1 0-2z"/><path d="M11 0a7 7 0 0 1 7 7 1 1 0 0 1-2 0 5 5 0 0 0-5-5 1 1 0 1 1 0-2z"/></g></svg>
